HIERARCHY
ROOT Hips
{
	OFFSET 0.00000 0.00000 0.00000
	CHANNELS 6 Xposition Yposition Zposition Zrotation Yrotation Xrotation 
	JOINT LHipJoint
	{
		OFFSET 0 0 0
		CHANNELS 3 Zrotation Yrotation Xrotation
		JOINT LeftHip
		{
			OFFSET 1.37590 -1.78394 0.89329
			CHANNELS 3 Zrotation Yrotation Xrotation
			JOINT LeftKnee
			{
				OFFSET 2.47928 -6.81178 0.00000
				CHANNELS 3 Zrotation Yrotation Xrotation
				JOINT LeftAnkle
				{
					OFFSET 2.63345 -7.23535 0.00000
					CHANNELS 3 Zrotation Yrotation Xrotation
					JOINT LeftToe
					{
						OFFSET 0.23938 -0.65768 2.27012
						CHANNELS 3 Zrotation Yrotation Xrotation
						End Site
						{
							OFFSET 0.00000 -0.00000 1.18363
						}
					}
				}
			}
		}
	}
	JOINT RHipJoint
	{
		OFFSET 0 0 0
		CHANNELS 3 Zrotation Yrotation Xrotation
		JOINT RightHip
		{
			OFFSET -1.33617 -1.78394 0.89329
			CHANNELS 3 Zrotation Yrotation Xrotation
			JOINT RightKnee
			{
				OFFSET -2.56922 -7.05888 0.00000
				CHANNELS 3 Zrotation Yrotation Xrotation
				JOINT RightAnkle
				{
					OFFSET -2.56568 -7.04915 0.00000
					CHANNELS 3 Zrotation Yrotation Xrotation
					JOINT RightToe
					{
						OFFSET -0.27533 -0.75646 2.18105
						CHANNELS 3 Zrotation Yrotation Xrotation
						End Site
						{
							OFFSET -0.00000 -0.00000 1.15233
						}
					}
				}
			}
		}
	}
	JOINT lowerback
	{
		OFFSET 0 0 0
		CHANNELS 3 Zrotation Yrotation Xrotation
		JOINT Chest
		{
			OFFSET 0.06190 2.15152 -0.00935
			CHANNELS 3 Zrotation Yrotation Xrotation
			JOINT Chest2
			{
				OFFSET 0.06334 2.15332 0.00872
				CHANNELS 3 Zrotation Yrotation Xrotation
				JOINT lowerneck
				{
					OFFSET 0 0 0
					CHANNELS 3 Zrotation Yrotation Xrotation
					JOINT Neck
					{
						OFFSET -0.04202 1.66908 0.23524
						CHANNELS 3 Zrotation Yrotation Xrotation
						JOINT Head
						{
							OFFSET 0.07510 1.69357 -0.24440
							CHANNELS 3 Zrotation Yrotation Xrotation
							End Site
							{
								OFFSET 0.02556 1.71719 -0.11000
							}
						}
					}
				}
				JOINT LeftCollar
				{
					OFFSET 0 0 0
					CHANNELS 3 Zrotation Yrotation Xrotation
					JOINT LeftShoulder
					{
						OFFSET 3.67168 1.26306 -0.41342
CHANNELS 3 Zrotation Xrotation Yrotation
						JOINT LeftElbow
						{
OFFSET 0 -4.685100 -0.000000
CHANNELS 3 Zrotation Xrotation Yrotation
							JOINT LeftWrist
							{
OFFSET 0 -3.396260 -0.000000
CHANNELS 3 Zrotation Xrotation Yrotation
								JOINT lhand
								{
									OFFSET 0 0 0
CHANNELS 3 Zrotation Xrotation Yrotation
									JOINT LFingers
									{
OFFSET 0 -0.486080 -0.000000
CHANNELS 3 Zrotation Xrotation Yrotation
										End Site
										{
OFFSET 0 -0.391890 -0.000000
										}
									}
								}
								JOINT LThumb
								{
OFFSET 0 0.000000 0.000000
CHANNELS 3 Zrotation Xrotation Yrotation
									End Site
									{
OFFSET 0 -0.397870 0.397870
									}
								}
							}
						}
					}
				}
				JOINT RightCollar
				{
					OFFSET 0 0 0
					CHANNELS 3 Zrotation Yrotation Xrotation
					JOINT RightShoulder
					{
						OFFSET -3.04136 1.42992 -0.76390
CHANNELS 3 Zrotation Xrotation Yrotation
						JOINT RightElbow
						{
OFFSET 0 -5.555760 -0.000000
CHANNELS 3 Zrotation Xrotation Yrotation
							JOINT RightWrist
							{
OFFSET 0 -3.327740 -0.000000
CHANNELS 3 Zrotation Xrotation Yrotation
								JOINT rhand
								{
									OFFSET 0 0 0
CHANNELS 3 Zrotation Xrotation Yrotation
									JOINT RFingers
									{
OFFSET 0 -0.507630 -0.000000
CHANNELS 3 Zrotation Xrotation Yrotation
										End Site
										{
OFFSET 0 -0.409260 -0.000000
										}
									}
								}
								JOINT RThumb
								{
OFFSET 0 0.000000 0.000000
CHANNELS 3 Zrotation Xrotation Yrotation
									End Site
									{
OFFSET 0 -0.415510 0.415510
									}
								}
							}
						}
					}
				}
			}
		}
	}
}
MOTION
Frames: 5
Frame Time: 0.008333333333333333
0.739529 17.541592 3.831444 -469.482457 -78.236683 466.506666 0.000000 0.000000 0.000000 3.941686 -3.993315 -52.985155 12.330138 18.524313 67.028947 -139.971443 -6.047286 -176.600270 0.074963 1.761052 4.845895 0.000000 0.000000 0.000000 38.133984 2.396187 -12.828261 -3.190194 -10.996379 32.268188 -0.498329 2.909093 -12.655410 -1.557696 -7.876472 22.339635 8.833315 0.532296 3.700884 4.477246 1.093350 -0.664090 -0.364561 0.376658 -2.690822 -6.332407 -4.759339 -16.785112 6.052522 -6.114395 15.176804 2.315159 -2.724546 7.832159 0.000000 0.000000 0.000000 4.038217 17.066201 -25.499844 26.058584 -37.266148 8.923198 9.870719 5.613914 -4.415822 0.000000 0.000000 0.000000 -7.125000 0.000000 0.000000 -13.746216 34.203148 -3.732463 0.000000 0.000000 0.000000 -6.068010 -20.791911 48.964110 -62.406775 -56.917415 -36.350907 -10.515247 -7.141755 11.905299 0.000000 0.000000 0.000000 7.125000 0.000000 0.000000 14.834879 41.609152 1.271967
0.657220 17.555109 3.830700 -470.566878 -78.003352 467.330970 0.000000 0.000000 0.000000 4.388967 -4.031924 -55.350705 11.919172 18.355796 65.731845 -139.951597 -6.491491 -176.834792 0.091803 1.953399 5.377017 0.000000 0.000000 0.000000 38.333663 2.106719 -12.040807 -3.120575 -10.887595 31.901960 -0.507828 3.071445 -12.760145 -1.533317 -7.817505 22.161214 9.121374 0.713113 3.943597 4.421266 1.367027 -0.554597 -0.598966 0.509813 -2.687246 -6.379876 -4.869257 -16.707414 6.172738 -6.276785 15.087321 2.343698 -2.795218 7.805550 0.000000 0.000000 0.000000 4.276157 18.144505 -25.025312 26.266841 -37.470907 9.049534 9.545840 5.161746 -4.463237 0.000000 0.000000 0.000000 -7.125000 0.000000 0.000000 -14.015785 34.235268 -3.798203 0.000000 0.000000 0.000000 -6.087095 -22.098965 49.187530 -62.858227 -57.024575 -36.729289 -10.431222 -7.101007 11.926011 0.000000 0.000000 0.000000 7.125000 0.000000 0.000000 14.913024 41.621616 1.274314
0.573300 17.567981 3.829633 -471.492130 -77.784521 467.990950 0.000000 0.000000 0.000000 4.819946 -4.099273 -57.639441 11.569553 18.201326 64.616209 -139.932395 -6.858818 -177.080720 0.107804 2.115264 5.824494 0.000000 0.000000 0.000000 38.522838 1.843865 -11.230411 -3.048959 -10.773592 31.520267 -0.517714 3.189075 -12.875641 -1.511128 -7.763241 21.997357 9.378823 0.882589 4.179995 4.376177 1.625045 -0.450195 -0.805209 0.635622 -2.683477 -6.441394 -4.979562 -16.626623 6.284963 -6.435308 15.006601 2.372430 -2.865696 7.781583 0.000000 0.000000 0.000000 4.513195 19.196774 -24.593054 26.485602 -37.683978 9.183024 9.204400 4.771376 -4.529662 0.000000 0.000000 0.000000 -7.125000 0.000000 0.000000 -14.302108 34.284980 -3.862139 0.000000 0.000000 0.000000 -6.143492 -23.323342 49.333749 -63.285578 -57.123359 -37.088082 -10.313236 -7.102145 11.951684 0.000000 0.000000 0.000000 7.125000 0.000000 0.000000 15.021906 41.635626 1.278723
0.488060 17.580707 3.828273 -472.252539 -77.576842 468.502229 0.000000 0.000000 0.000000 5.245152 -4.198808 -59.884252 11.262784 18.059917 63.630344 -139.914807 -7.164708 -177.322441 0.121067 2.242107 6.175414 0.000000 0.000000 0.000000 38.710204 1.611289 -10.425787 -2.977147 -10.657535 31.133829 -0.528186 3.275497 -13.000383 -1.490699 -7.712940 21.845582 9.619103 1.043162 4.394724 4.339404 1.869367 -0.358853 -0.992963 0.754680 -2.680441 -6.512792 -5.091334 -16.539229 6.393079 -6.593636 14.936496 2.401553 -2.937349 7.760502 0.000000 0.000000 0.000000 4.753168 20.224587 -24.190144 26.696927 -37.888342 9.312551 8.960056 4.461814 -4.441956 0.000000 0.000000 0.000000 -7.125000 0.000000 0.000000 -14.482286 34.187996 -3.949064 0.000000 0.000000 0.000000 -6.229923 -24.481194 49.425967 -63.691162 -57.215441 -37.428924 -10.190995 -7.150437 11.983228 0.000000 0.000000 0.000000 7.125000 0.000000 0.000000 15.136071 41.655017 1.281519
0.401699 17.593446 3.826739 -472.862796 -77.377510 468.883304 0.000000 0.000000 0.000000 5.668940 -4.326937 -62.095862 10.991872 17.930547 62.754350 -139.898733 -7.417509 -177.563515 0.130842 2.331837 6.423766 0.000000 0.000000 0.000000 38.899051 1.406581 -9.633600 -2.905627 -10.540425 30.745518 -0.539065 3.337477 -13.131504 -1.472333 -7.667462 21.708507 9.846981 1.196188 4.584491 4.310992 2.101281 -0.279590 -1.164511 0.867629 -2.675715 -6.592843 -5.204514 -16.449679 6.496706 -6.751734 14.876638 2.430653 -3.009915 7.742814 0.000000 0.000000 0.000000 4.993712 21.225631 -23.811976 26.896984 -38.080681 9.435612 8.770163 4.232765 -4.261087 0.000000 0.000000 0.000000 -7.125000 0.000000 0.000000 -14.601681 34.002366 -4.051274 0.000000 0.000000 0.000000 -6.346054 -25.586472 49.475702 -64.073764 -57.300996 -37.750698 -10.071770 -7.240106 12.024308 0.000000 0.000000 0.000000 7.125000 0.000000 0.000000 15.250231 41.683942 1.280536
